<?xml version="1.0" standalone="no"?>
<!DOCTYPE svg PUBLIC "-//W3C//DTD SVG 20010904//EN"
 "http://www.w3.org/TR/2001/REC-SVG-20010904/DTD/svg10.dtd">
<svg version="1.0" xmlns="http://www.w3.org/2000/svg"
 width="512.000000pt" height="512.000000pt" viewBox="0 0 512.000000 512.000000"
 preserveAspectRatio="xMidYMid meet">
<metadata>
Created by potrace 1.11, written by Peter Selinger 2001-2013
</metadata>
<g transform="translate(0.000000,512.000000) scale(0.100000,-0.100000)"
fill="#000000" stroke="none">
<path d="M1943 5105 c-46 -20 -90 -68 -103 -112 -8 -27 -10 -737 -8 -2454 l3
-2415 27 -42 c17 -26 44 -49 70 -61 41 -19 68 -20 628 -20 665 0 642 -3 697
80 l28 43 3 2424 2 2425 -21 44 c-13 27 -38 55 -62 71 l-41 27 -595 2 c-490 2
-602 -1 -628 -12z"/>
<path d="M3773 3641 c-53 -21 -70 -36 -95 -85 l-21 -41 0 -1685 c0 -1678 0
-1685 20 -1725 12 -22 30 -48 41 -58 50 -45 65 -46 688 -44 l591 2 39 27 c22
15 48 42 59 60 20 33 20 57 20 1739 l0 1705 -25 37 c-13 20 -43 46 -65 59
l-40 23 -586 1 c-516 1 -590 -1 -626 -15z"/>
<path d="M125 3100 c-37 -11 -87 -58 -108 -102 -15 -30 -16 -167 -14 -1453 2
-1395 2 -1421 22 -1453 11 -18 37 -45 59 -60 l39 -27 607 0 606 0 42 28 c24
15 51 45 63 70 l22 42 0 1410 0 1410 -22 43 c-12 24 -39 54 -63 69 l-42 28
-590 2 c-327 1 -605 -2 -621 -7z"/>
</g>
</svg>
